<?xml version="1.0" encoding="UTF-8"?>
<svg version="1.1" xmlns="http://www.w3.org/2000/svg" width="258" height="138">
<path d="M0 0 C1.32 0.33 2.64 0.66 4 1 C2.35414159 7.65033847 0.54880796 12.80136233 -4 18 C-7.67116227 19.87154243 -10.64738831 20.23906537 -14.73828125 20.1953125 C-16.33833008 20.18564453 -16.33833008 20.18564453 -17.97070312 20.17578125 C-19.62489258 20.15064453 -19.62489258 20.15064453 -21.3125 20.125 C-22.43462891 20.11597656 -23.55675781 20.10695313 -24.71289062 20.09765625 C-27.47535217 20.07414594 -30.2377036 20.03827662 -33 20 C-33.33 24.29 -33.66 28.58 -34 33 C-26.91209249 33.77607687 -26.91209249 33.77607687 -21.0625 30.5 C-20.381875 29.675 -19.70125 28.85 -19 28 C-18.01 28 -17.02 28 -16 28 C-15.80826865 32.79328363 -15.75695883 36.70083776 -18 41 C-21.76043535 44.41857759 -25.37643002 46.30338333 -30.5 46.3125 C-31.655 46.209375 -32.81 46.10625 -34 46 C-33.94779297 47.50240234 -33.94779297 47.50240234 -33.89453125 49.03515625 C-33.5693913 62.24147826 -33.5693913 62.24147826 -37 68 C-37.598125 69.051875 -38.19625 70.10375 -38.8125 71.1875 C-42.50999984 75.94142837 -46.00904735 78.09186335 -51.9375 78.9375 C-57.65422217 79.30770942 -61.05715497 77.86380185 -65.875 74.8125 C-67.77888557 71.7451288 -68.11641436 68.53123561 -68 65 C-66.95735367 60.87753684 -65.62106589 58.41404392 -62 56 C-59.84375 55.734375 -59.84375 55.734375 -57.5 55.75 C-56.7265625 55.74484375 -55.953125 55.7396875 -55.15625 55.734375 C-53 56 -53 56 -50 58 C-50 53.71 -50 49.42 -50 45 C-51.32 44.67 -52.64 44.34 -54 44 C-53.6875 41.625 -53.6875 41.625 -53 39 C-52.01 38.34 -51.02 37.68 -50 37 C-49.49468134 35.07558585 -49.49468134 35.07558585 -49.48828125 32.8671875 C-49.45283203 32.06152344 -49.41738281 31.25585938 -49.38085938 30.42578125 C-49.35830078 29.58402344 -49.33574219 28.74226563 -49.3125 27.875 C-49.27833984 27.02550781 -49.24417969 26.17601563 -49.20898438 25.30078125 C-49.12640827 23.20098895 -49.06153022 21.10051436 -49 19 C-48.34 19 -47.68 19 -47 19 C-47 18.34 -47 17.68 -47 17 C-51.07186309 16.61617929 -51.07186309 16.61617929 -54.69140625 18.1640625 C-56.50811374 20.71287599 -56.26502883 22.46951034 -56.125 25.5625 C-55.91512915 30.8302583 -55.91512915 30.8302583 -57 33 C-58.98 33 -60.96 33 -63 33 C-63 32.34 -63 31.68 -63 31 C-63.66 31 -64.32 31 -65 31 C-65 27.04 -65 23.08 -65 19 C-64.34 19 -63.68 19 -63 19 C-62.938125 18.443125 -62.87625 17.88625 -62.8125 17.3125 C-61.37496109 13.22104311 -58.69398261 10.87937294 -54.87350464 8.89610291 C-48.65342825 6.26610383 -43.4737073 5.45562582 -36.7578125 5.56640625 C-34.84895746 5.55681292 -32.9401033 5.54704224 -31.03125 5.53710938 C-28.06208033 5.54574642 -25.09312365 5.56273599 -22.12402344 5.5847168 C-19.23068962 5.59919771 -16.33860127 5.58402962 -13.4453125 5.56640625 C-12.55675568 5.58288712 -11.66819885 5.59936798 -10.75271606 5.61634827 C-5.50753816 5.62351133 -5.50753816 5.62351133 -1.40966797 2.46459961 C-0.94447754 1.65128174 -0.47928711 0.83796387 0 0 Z " fill="#232627" transform="translate(71,4)"/>
<path d="M0 0 C-0.33 4.95 -0.66 9.9 -1 15 C8.24 14.67 17.48 14.34 27 14 C27.59318296 21.11819551 28.0526721 28.08944421 27.92578125 35.234375 C27.90902344 36.30945312 27.89226562 37.38453125 27.875 38.4921875 C27.83362544 40.64883662 27.7752716 42.80523268 27.69921875 44.9609375 C27.68117187 45.95867188 27.663125 46.95640625 27.64453125 47.984375 C27.61721924 48.87866211 27.58990723 49.77294922 27.56176758 50.69433594 C28.14538797 53.76492701 29.54440069 54.21642435 32 56 C32 57.32 32 58.64 32 60 C24.41 60 16.82 60 9 60 C9 58.68 9 57.36 9 56 C9.48533203 55.56550537 9.97066406 55.13101074 10.47070312 54.68334961 C13.77270547 51.04872219 12.5159863 44.49882613 12.50097656 39.7487793 C12.50000456 37.5727085 12.54161368 35.40017045 12.5859375 33.22460938 C12.5911452 31.838549 12.59383268 30.4524764 12.59375 29.06640625 C12.60083984 27.80771729 12.60792969 26.54902832 12.61523438 25.25219727 C12.28839438 21.80589077 12.28839438 21.80589077 9.46289062 19.55834961 C8.65013672 19.04409424 7.83738281 18.52983887 7 18 C6.67 19.32 6.34 20.64 6 22 C3.69 22 1.38 22 -1 22 C-0.505 37.345 -0.505 37.345 0 53 C0.66 53 1.32 53 2 53 C2 53.66 2 54.32 2 55 C3.98 55 5.96 55 8 55 C7.01 57.475 7.01 57.475 6 60 C-0.2213612 61.06569613 -5.03024586 61.22601002 -11 59 C-14.28470844 56.30485461 -15.22243701 53.8993546 -15.75 49.8125 C-16.07117314 44.75784659 -16.09460248 39.68871993 -16.125 34.625 C-16.12983398 33.83971924 -16.13466797 33.05443848 -16.13964844 32.24536133 C-16.12885014 28.66148305 -15.96780051 25.44736884 -15 22 C-17.31 21.67 -19.62 21.34 -22 21 C-22 19.02 -22 17.04 -22 15 C-20.02 14.34 -18.04 13.68 -16 13 C-16.061875 11.783125 -16.12375 10.56625 -16.1875 9.3125 C-15.9375 7.11328125 -15.9375 7.11328125 -15 5 C-10.32155732 1.76048624 -5.68335092 0 0 0 Z " fill="#3D3E3F" transform="translate(120,15)"/>
<path d="M0 0 C1.11955078 0.42539063 1.11955078 0.42539063 2.26171875 0.859375 C3.45861328 1.29443359 3.45861328 1.29443359 4.6796875 1.73828125 C5.42863281 2.02574219 6.17757812 2.31320313 6.94921875 2.609375 C13.0788429 4.93863218 17.97801513 5.53777925 24.13671875 3.046875 C24.76964844 2.75683594 25.40257812 2.46679688 26.0546875 2.16796875 C28.49661066 1.44797904 29.59647674 1.6400635 31.94921875 2.609375 C33.95703125 4.3515625 33.95703125 4.3515625 36.07421875 6.484375 C42.34663279 12.22383883 48.63926178 13.2516491 56.82421875 14.546875 C60.09733046 15.1163131 61.81750803 15.52360988 64.63671875 17.359375 C66.40549688 20.39156608 66.52503108 22.15450101 65.94921875 25.609375 C63.2068389 29.44870679 59.37325503 31.24198411 54.94921875 32.609375 C51.8953302 33.02155414 48.90205539 33.03761292 45.82421875 32.984375 C44.57342529 32.97241089 44.57342529 32.97241089 43.29736328 32.96020508 C32.98659393 32.72492178 23.61102859 30.04832427 13.94921875 26.609375 C13.94921875 27.599375 13.94921875 28.589375 13.94921875 29.609375 C11.19862494 29.69045146 8.45042854 29.74990313 5.69921875 29.796875 C4.92191406 29.82201172 4.14460938 29.84714844 3.34375 29.87304688 C-0.15397511 29.9178895 -2.4425956 29.92848476 -5.58203125 28.28125 C-7.05078125 26.609375 -7.05078125 26.609375 -7.30078125 23.671875 C-7.21828125 22.66125 -7.13578125 21.650625 -7.05078125 20.609375 C-6.9324709 16.61979438 -6.9324709 16.61979438 -7.73828125 12.796875 C-8.34569695 8.21986935 -7.29388865 5.61492392 -5.05078125 1.609375 C-2.05078125 -0.390625 -2.05078125 -0.390625 0 0 Z M10.94921875 16.609375 C10.94921875 17.269375 10.94921875 17.929375 10.94921875 18.609375 C9.95921875 18.939375 8.96921875 19.269375 7.94921875 19.609375 C8.65304688 19.62355469 9.356875 19.63773438 10.08203125 19.65234375 C17.79599505 20.02495036 23.99618955 21.77778636 31.11328125 24.55078125 C33.75699297 25.72594462 33.75699297 25.72594462 35.94921875 25.609375 C35.94921875 24.619375 35.94921875 23.629375 35.94921875 22.609375 C32.91218007 21.59493034 29.86894798 20.60047454 26.82421875 19.609375 C25.96828125 19.32320312 25.11234375 19.03703125 24.23046875 18.7421875 C19.66642966 17.2676518 15.81129419 16.22678546 10.94921875 16.609375 Z M56.94921875 21.609375 C60.94921875 22.609375 60.94921875 22.609375 60.94921875 22.609375 Z M38.94921875 23.609375 C39.93921875 25.094375 39.93921875 25.094375 40.94921875 26.609375 C43.91921875 25.949375 46.88921875 25.289375 49.94921875 24.609375 C49.94921875 24.279375 49.94921875 23.949375 49.94921875 23.609375 C46.31921875 23.609375 42.68921875 23.609375 38.94921875 23.609375 Z " fill="#1C1D1E" transform="translate(106.05078125,100.390625)"/>
<path d="M0 0 C2.9389507 0.0868803 5.87481289 0.19373767 8.8125 0.3125 C9.64587891 0.33505859 10.47925781 0.35761719 11.33789062 0.38085938 C12.54155273 0.4340332 12.54155273 0.4340332 13.76953125 0.48828125 C14.87711792 0.52755737 14.87711792 0.52755737 16.00708008 0.56762695 C18.47166391 1.10232963 19.40052324 2.09965347 21 4 C21.94875 3.34 22.8975 2.68 23.875 2 C28.47898524 -0.61483949 32.82355396 -0.84705481 38 0 C42.42484878 2.21242439 45.19476657 4.94799616 48 9 C49.05366619 12.16099858 49.10048265 14.3412087 49.0625 17.65625 C49.05476563 18.76097656 49.04703125 19.86570312 49.0390625 21.00390625 C49.01302083 23.33463542 48.98697917 25.66536458 48.9609375 27.99609375 C48.95320313 29.10082031 48.94546875 30.20554687 48.9375 31.34375 C48.92589844 32.35630859 48.91429687 33.36886719 48.90234375 34.41210938 C48.8833835 37.11719875 48.8833835 37.11719875 50 40 C52.00016466 41.20882096 52.00016466 41.20882096 54 42 C54 43.32 54 44.64 54 46 C51.91673869 46.02709444 49.83337559 46.04643873 47.75 46.0625 C46.00976562 46.07990234 46.00976562 46.07990234 44.234375 46.09765625 C38.04748201 45.91085393 38.04748201 45.91085393 35.29296875 43.515625 C33.33141681 39.69919161 33.42673657 35.98654492 33.3125 31.75 C33.27833984 30.92886719 33.24417969 30.10773437 33.20898438 29.26171875 C33.05728135 25.35459187 32.9895034 21.45677715 33.01171875 17.546875 C33.00241697 14.73153566 32.87947822 12.63843466 32 10 C27.50327206 8.95424932 25.18079199 9.13395656 21 11 C20.87593993 15.03825066 20.78544955 19.07575638 20.7253418 23.11547852 C20.70027383 24.48807102 20.66620918 25.86053102 20.62280273 27.23266602 C20.56182469 29.21050696 20.53638991 31.18934184 20.51171875 33.16796875 C20.48553467 34.35672607 20.45935059 35.5454834 20.43237305 36.77026367 C21.15698516 40.89322867 22.85080515 42.35641983 26 45 C25 46 25 46 22.77514648 46.11352539 C21.81680908 46.10828857 20.85847168 46.10305176 19.87109375 46.09765625 C18.31938477 46.09282227 18.31938477 46.09282227 16.73632812 46.08789062 C15.64771484 46.07951172 14.55910156 46.07113281 13.4375 46.0625 C11.7987793 46.05573242 11.7987793 46.05573242 10.12695312 46.04882812 C7.41791505 46.03699826 4.70898401 46.02051543 2 46 C1.505 44.515 1.505 44.515 1 43 C2.485 42.505 2.485 42.505 4 42 C4.91442383 38.10711525 5.12881725 34.48686625 5.1328125 30.4921875 C5.13410156 29.25855469 5.13539063 28.02492188 5.13671875 26.75390625 C5.13285156 25.47386719 5.12898437 24.19382812 5.125 22.875 C5.12886719 21.58722656 5.13273438 20.29945312 5.13671875 18.97265625 C5.13542969 17.74160156 5.13414062 16.51054688 5.1328125 15.2421875 C5.13112061 13.55391846 5.13112061 13.55391846 5.12939453 11.83154297 C5.12533155 8.92167664 5.12533155 8.92167664 4 6 C1.99983534 4.79117904 1.99983534 4.79117904 0 4 C0 2.68 0 1.36 0 0 Z " fill="#2B2C2D" transform="translate(198,29)"/>
<path d="M0 0 C3.23622064 2.3392247 4.94372586 4.81631761 6.15625 8.55859375 C6.74629552 14.34318036 6.56670498 20.14427845 6.46875 25.95117188 C6.20843381 31.99290082 6.20843381 31.99290082 8.53222656 37.27978516 C10.32637773 38.5629676 10.32637773 38.5629676 13.15625 39.55859375 C12.82625 40.87859375 12.49625 42.19859375 12.15625 43.55859375 C-1.66151765 44.1121245 -1.66151765 44.1121245 -6.84375 40.55859375 C-6.84375 39.89859375 -6.84375 39.23859375 -6.84375 38.55859375 C-7.50375 38.55859375 -8.16375 38.55859375 -8.84375 38.55859375 C-8.84375 39.21859375 -8.84375 39.87859375 -8.84375 40.55859375 C-14.26644613 43.52816544 -18.2310212 45.01696722 -24.40625 43.93359375 C-29.34866815 41.95662649 -31.86792242 39.46782163 -34.28125 34.74609375 C-35.03881571 30.4532214 -34.13042314 27.70454053 -32.84375 23.55859375 C-32.18375 23.55859375 -31.52375 23.55859375 -30.84375 23.55859375 C-30.84375 22.89859375 -30.84375 22.23859375 -30.84375 21.55859375 C-30.18375 21.55859375 -29.52375 21.55859375 -28.84375 21.55859375 C-28.84375 20.89859375 -28.84375 20.23859375 -28.84375 19.55859375 C-21.98490041 16.28969522 -16.43945439 14.97679512 -8.84375 15.55859375 C-9.03856626 10.11735041 -9.03856626 10.11735041 -11.46875 5.49609375 C-14.8299085 4.16932066 -17.369546 4.82366598 -20.84375 5.55859375 C-21.070625 6.30109375 -21.2975 7.04359375 -21.53125 7.80859375 C-23.11198621 11.12061247 -24.79881421 12.55339213 -27.84375 14.55859375 C-28.83375 14.55859375 -29.82375 14.55859375 -30.84375 14.55859375 C-31.75214578 5.89518956 -31.75214578 5.89518956 -29.68359375 2.8515625 C-20.96172295 -4.5319138 -10.14070336 -3.80276376 0 0 Z M-18.84375 23.55859375 C-20.25375664 26.37860702 -20.08923451 28.4286663 -19.84375 31.55859375 C-18.81497608 34.46939494 -18.81497608 34.46939494 -16.84375 36.55859375 C-14.34375 37.22526042 -14.34375 37.22526042 -11.84375 36.55859375 C-10.08186392 35.46494133 -10.08186392 35.46494133 -8.84375 33.55859375 C-8.48055691 30.58666613 -8.48055691 30.58666613 -8.65625 27.37109375 C-8.68332031 26.28441406 -8.71039063 25.19773437 -8.73828125 24.078125 C-8.77308594 23.24667969 -8.80789062 22.41523437 -8.84375 21.55859375 C-14.13682048 21.40925461 -14.13682048 21.40925461 -18.84375 23.55859375 Z " fill="#1C1D1F" transform="translate(88.84375,31.44140625)"/>
<path d="M0 0 C5.84218777 3.3437602 10.13600277 7.33690708 12 13.9375 C12.23916854 15.2656487 12.44908806 16.59950316 12.625 17.9375 C12.8725 19.608125 12.8725 19.608125 13.125 21.3125 C12.37843055 26.72512853 9.68029848 30.49409717 6.625 34.9375 C6.25375 35.54207031 5.8825 36.14664063 5.5 36.76953125 C1.93868233 41.94129771 -3.57108638 43.44242529 -9.375 44.9375 C-15.74858004 45.83203755 -20.66167503 43.5125197 -26.375 40.9375 C-26.375 40.2775 -26.375 39.6175 -26.375 38.9375 C-27.24125 38.6590625 -27.24125 38.6590625 -28.125 38.375 C-32.01990948 35.88658561 -33.80220521 31.79908307 -35.125 27.5 C-35.96672137 18.87235599 -35.04270343 13.06031439 -30.3125 5.75 C-22.37665017 -2.87078925 -10.5032322 -4.74695629 0 0 Z M-16.375 3.9375 C-16.375 4.5975 -16.375 5.2575 -16.375 5.9375 C-17.035 5.9375 -17.695 5.9375 -18.375 5.9375 C-20.87733376 10.36806602 -20.74231793 14.2018361 -20.75 19.1875 C-20.77449219 20.00863281 -20.79898438 20.82976563 -20.82421875 21.67578125 C-20.85188061 27.49399312 -19.82405503 32.15111582 -16.375 36.9375 C-13.12673326 39.10301116 -12.14405843 39.48906953 -8.375 38.9375 C-4.27875766 36.01161261 -3.31123099 32.77469347 -2.375 27.9375 C-1.43322228 19.44723113 -3.26801413 12.28728022 -8.25 5.3125 C-11.06566738 3.49059758 -13.09036848 3.63889713 -16.375 3.9375 Z " fill="#202224" transform="translate(187.375,31.0625)"/>
<path d="M0 0 C1.17369141 0.42539063 1.17369141 0.42539063 2.37109375 0.859375 C3.15613281 1.13265625 3.94117187 1.4059375 4.75 1.6875 C6.80859375 2.609375 6.80859375 2.609375 8.80859375 4.609375 C7.78765625 4.3928125 7.78765625 4.3928125 6.74609375 4.171875 C3.44586293 3.53991591 0.13714949 3.06623559 -3.19140625 2.609375 C-5.37981979 5.89199531 -5.4399529 6.92728398 -5.37890625 10.734375 C-5.37246094 11.62382813 -5.36601563 12.51328125 -5.359375 13.4296875 C-5.43093673 15.58674029 -5.43093673 15.58674029 -4.19140625 16.609375 C-1.66091223 16.68251067 0.84164212 16.70185027 3.37109375 16.671875 C4.08201172 16.66736328 4.79292969 16.66285156 5.52539062 16.65820312 C7.28649388 16.64638364 9.04755411 16.62844763 10.80859375 16.609375 C11.13859375 17.269375 11.46859375 17.929375 11.80859375 18.609375 C13.68748239 19.1207795 13.68748239 19.1207795 15.99609375 19.421875 C22.88654568 20.65195568 29.28247061 23.14562246 35.80859375 25.609375 C35.80859375 24.619375 35.80859375 23.629375 35.80859375 22.609375 C34.81859375 22.279375 33.82859375 21.949375 32.80859375 21.609375 C34.78859375 21.279375 36.76859375 20.949375 38.80859375 20.609375 C38.80859375 21.269375 38.80859375 21.929375 38.80859375 22.609375 C42.08044183 22.52852797 45.35042154 22.41568626 48.62109375 22.296875 C50.01424805 22.26303711 50.01424805 22.26303711 51.43554688 22.22851562 C52.32822266 22.19306641 53.22089844 22.15761719 54.140625 22.12109375 C54.96280518 22.09490967 55.78498535 22.06872559 56.63208008 22.04174805 C59.27308228 21.51710252 60.14983559 20.68879806 61.80859375 18.609375 C62.13859375 17.949375 62.46859375 17.289375 62.80859375 16.609375 C65.30478629 18.48151941 65.77724498 19.3988904 66.24609375 22.546875 C65.80859375 25.609375 65.80859375 25.609375 64.24609375 27.796875 C58.25340485 32.25297701 52.95447187 33.11014075 45.68359375 32.984375 C44.43280029 32.97241089 44.43280029 32.97241089 43.15673828 32.96020508 C32.84596893 32.72492178 23.47040359 30.04832427 13.80859375 26.609375 C13.80859375 27.599375 13.80859375 28.589375 13.80859375 29.609375 C11.05799994 29.69045146 8.30980354 29.74990313 5.55859375 29.796875 C4.78128906 29.82201172 4.00398438 29.84714844 3.203125 29.87304688 C-0.29460011 29.9178895 -2.5832206 29.92848476 -5.72265625 28.28125 C-7.19140625 26.609375 -7.19140625 26.609375 -7.44140625 23.671875 C-7.35890625 22.66125 -7.27640625 21.650625 -7.19140625 20.609375 C-7.0730959 16.61979438 -7.0730959 16.61979438 -7.87890625 12.796875 C-8.48632195 8.21986935 -7.43451365 5.61492392 -5.19140625 1.609375 C-2.19140625 -0.390625 -2.19140625 -0.390625 0 0 Z M38.80859375 23.609375 C39.79859375 25.094375 39.79859375 25.094375 40.80859375 26.609375 C43.77859375 25.949375 46.74859375 25.289375 49.80859375 24.609375 C49.80859375 24.279375 49.80859375 23.949375 49.80859375 23.609375 C46.17859375 23.609375 42.54859375 23.609375 38.80859375 23.609375 Z " fill="#3E3F3F" transform="translate(106.19140625,100.390625)"/>
<path d="M0 0 C5.94 0.33 11.88 0.66 18 1 C18.67863173 6.42905388 19.12011494 11.1724139 19.09765625 16.5625 C19.0962413 17.23925781 19.09482635 17.91601562 19.09336853 18.61328125 C19.08783978 20.74223546 19.07530155 22.87107842 19.0625 25 C19.05747576 26.45702971 19.05291449 27.9140611 19.04882812 29.37109375 C19.03789388 32.9140977 19.02068 36.45703797 19 40 C19.62390625 40.29648438 20.2478125 40.59296875 20.890625 40.8984375 C23.03797092 42.01982926 24.38095835 43.21905418 26 45 C25 46 25 46 22.77514648 46.11352539 C21.81680908 46.10828857 20.85847168 46.10305176 19.87109375 46.09765625 C18.31938477 46.09282227 18.31938477 46.09282227 16.73632812 46.08789062 C15.64771484 46.07951172 14.55910156 46.07113281 13.4375 46.0625 C11.7987793 46.05573242 11.7987793 46.05573242 10.12695312 46.04882812 C7.41791505 46.03699826 4.70898401 46.02051543 2 46 C1.505 44.515 1.505 44.515 1 43 C2.485 42.505 2.485 42.505 4 42 C4.91442383 38.10711525 5.12881725 34.48686625 5.1328125 30.4921875 C5.13410156 29.25855469 5.13539063 28.02492188 5.13671875 26.75390625 C5.13285156 25.47386719 5.12898437 24.19382812 5.125 22.875 C5.12886719 21.58722656 5.13273438 20.29945312 5.13671875 18.97265625 C5.13542969 17.74160156 5.13414062 16.51054688 5.1328125 15.2421875 C5.13112061 13.55391846 5.13112061 13.55391846 5.12939453 11.83154297 C5.12533155 8.92167664 5.12533155 8.92167664 4 6 C1.99983534 4.79117904 1.99983534 4.79117904 0 4 C0 2.68 0 1.36 0 0 Z " fill="#262829" transform="translate(198,29)"/>
<path d="M0 0 C0 12.54 0 25.08 0 38 C1.32 38.66 2.64 39.32 4 40 C4.66 40.33 5.32 40.66 6 41 C6 42.32 6 43.64 6 45 C-1.59 45 -9.18 45 -17 45 C-17 43.68 -17 42.36 -17 41 C-16.51394287 40.56550537 -16.02788574 40.13101074 -15.52709961 39.68334961 C-13.12857809 37.03941582 -13.59352344 34.56452363 -13.56640625 31.06640625 C-13.5611644 30.39206039 -13.55592255 29.71771454 -13.55052185 29.02293396 C-13.54410561 27.59822973 -13.54543361 26.17347249 -13.55395508 24.7487793 C-13.5624586 22.57309178 -13.53371658 20.40003697 -13.50195312 18.22460938 C-13.50034073 16.83854245 -13.50091938 15.45247089 -13.50390625 14.06640625 C-13.50205322 12.80771729 -13.5002002 11.54902832 -13.49829102 10.25219727 C-14.08505338 6.44866369 -15.14189614 5.44347503 -18 3 C-18 2.34 -18 1.68 -18 1 C-15.56257869 0.83210874 -13.12507454 0.66563867 -10.6875 0.5 C-9.99720703 0.45230469 -9.30691406 0.40460937 -8.59570312 0.35546875 C-5.72337641 0.16120511 -2.87986212 0 0 0 Z " fill="#202223" transform="translate(146,30)"/>
<path d="M0 0 C0.33 0.66 0.66 1.32 1 2 C2.32 2.66 3.64 3.32 5 4 C5 11.92 5 19.84 5 28 C5.99 28 6.98 28 8 28 C8.66 29.65 9.32 31.3 10 33 C8.515 32.505 8.515 32.505 7 32 C5.68 33.32 4.36 34.64 3 36 C-0.16321624 35.41149465 -2.35430612 34.76014227 -4.4765625 32.26171875 C-8.47804328 26.04889332 -9.73924372 20.41981661 -9 13 C-7.64580594 6.77988831 -5.13905036 3.65443581 0 0 Z " fill="#16191A" transform="translate(161,35)"/>
<path d="M0 0 C1.7115477 0.0001133 1.7115477 0.0001133 3.45767212 0.00022888 C4.69415497 0.00539017 5.93063782 0.01055145 7.20458984 0.01586914 C8.46693451 0.01728409 9.72927917 0.01869904 11.02987671 0.02015686 C14.38691033 0.02481461 17.74387635 0.03380131 21.10089111 0.04486084 C24.52607641 0.05508769 27.95126868 0.05965721 31.37646484 0.06469727 C38.09783777 0.07574301 44.81917865 0.09249346 51.54052734 0.11352539 C51.92271501 1.76967196 52.25447836 3.43809563 52.54052734 5.11352539 C50.84143025 6.81262248 48.67393683 6.24103422 46.34985352 6.24291992 C45.2416777 6.24607208 44.13350189 6.24922424 42.991745 6.25247192 C41.78452286 6.25044769 40.57730072 6.24842346 39.33349609 6.24633789 C37.48538078 6.24777298 37.48538078 6.24777298 35.59992981 6.24923706 C32.315117 6.25009447 29.03035101 6.24605459 25.74554443 6.24047852 C23.7347258 6.23853188 21.72395098 6.24046558 19.71313477 6.24389648 C15.8574012 6.25007136 12.00173235 6.24932497 8.14599609 6.24633789 C6.94484665 6.24836212 5.7436972 6.25038635 4.50614929 6.25247192 C3.388517 6.24931976 2.2708847 6.2461676 1.11938477 6.24291992 C-0.35501823 6.24172653 -0.35501823 6.24172653 -1.85920715 6.24050903 C-4.21453809 6.12548674 -6.20733682 5.7844151 -8.45947266 5.11352539 C-8.08447266 3.17602539 -8.08447266 3.17602539 -7.45947266 1.11352539 C-4.84425481 -0.19408353 -2.92833865 -0.00645009 0 0 Z " fill="#4C4F4F" transform="translate(40.45947265625,105.886474609375)"/>
<path d="M0 0 C18.81 0 37.62 0 57 0 C57.66 1.32 58.32 2.64 59 4 C55.3799782 5.64863656 52.56742263 6.24903765 48.59887695 6.24291992 C47.54461014 6.24599655 46.49034332 6.24907318 45.40412903 6.25224304 C44.27689926 6.24505753 43.14966949 6.23787201 41.98828125 6.23046875 C40.82370895 6.23001053 39.65913666 6.22955231 38.45927429 6.2290802 C36.00238015 6.22606328 33.54548783 6.21819378 31.08862305 6.20581055 C27.31617508 6.18751782 23.54397213 6.18530119 19.77148438 6.18554688 C17.38541453 6.18063288 14.99934636 6.17480508 12.61328125 6.16796875 C11.47997879 6.16685593 10.34667633 6.1657431 9.17903137 6.16459656 C7.61181587 6.15502678 7.61181587 6.15502678 6.01293945 6.14526367 C5.09092239 6.14145187 4.16890533 6.13764008 3.21894836 6.13371277 C1 6 1 6 -1 5 C-0.67 3.35 -0.34 1.7 0 0 Z " fill="#080A0A" transform="translate(173,106)"/>
<path d="M0 0 C1.01037827 0.00222061 2.02075653 0.00444122 3.06175232 0.00672913 C4.77341331 0.00684242 4.77341331 0.00684242 6.51965332 0.00695801 C7.76129745 0.01211929 9.00294159 0.01728058 10.2822113 0.02259827 C12.17785072 0.02472069 12.17785072 0.02472069 14.11178589 0.02688599 C17.47705394 0.0315487 20.84225495 0.04053972 24.20750427 0.05158997 C27.63930175 0.06180606 31.07110614 0.06638403 34.50291443 0.07142639 C41.2405633 0.08248071 47.9781803 0.09923742 54.71580505 0.12025452 C54.75852606 1.78637357 54.75644337 3.45408337 54.71580505 5.12025452 C53.71580505 6.12025452 53.71580505 6.12025452 51.46957397 6.24050903 C50.4769606 6.23828842 49.48434723 6.23606781 48.46165466 6.23377991 C47.34056808 6.23370438 46.21948151 6.23362885 45.06442261 6.23355103 C43.23476707 6.2258091 43.23476707 6.2258091 41.3681488 6.21791077 C40.12658524 6.21649582 38.88502167 6.21508087 37.60583496 6.21362305 C34.29975015 6.20896042 30.99373359 6.19996948 27.68766785 6.18891907 C24.31619356 6.17870279 20.94471223 6.17412496 17.57322693 6.16908264 C10.95406731 6.15802847 4.33494012 6.14127188 -2.28419495 6.12025452 C-2.66638262 4.46410794 -2.99814596 2.79568427 -3.28419495 1.12025452 C-2.28419495 0.12025452 -2.28419495 0.12025452 0 0 Z " fill="#070808" transform="translate(38.28419494628906,113.87974548339844)"/>
<path d="M0 0 C2.58420479 0.00543627 5.16824135 -0.0000198 7.75244141 -0.00634766 C9.4073897 -0.00568804 11.0623379 -0.00440929 12.71728516 -0.00244141 C13.48392487 -0.00446564 14.25056458 -0.00648987 15.04043579 -0.00857544 C18.47173259 0.00654551 21.64932603 0.04602006 24.92822266 1.13037109 C24.05322266 6.00537109 24.05322266 6.00537109 22.92822266 7.13037109 C21.20956857 7.22396299 19.48706522 7.2478172 17.76586914 7.24389648 C16.66480331 7.24382095 15.56373749 7.24374542 14.42930603 7.2436676 C13.23140945 7.23850632 12.03351288 7.23334503 10.79931641 7.22802734 C9.57994888 7.2266124 8.36058136 7.22519745 7.10426331 7.22373962 C3.19139196 7.21812076 -0.72142315 7.20556506 -4.63427734 7.19287109 C-7.27945881 7.18785852 -9.92464117 7.1832952 -12.56982422 7.17919922 C-19.0704946 7.16814521 -25.57113196 7.15138873 -32.07177734 7.13037109 C-31.74177734 5.15037109 -31.41177734 3.17037109 -31.07177734 1.13037109 C-20.69732132 0.19306173 -10.40918153 -0.02612847 0 0 Z " fill="#464748" transform="translate(204.07177734375,112.86962890625)"/>
<path d="M0 0 C-0.66 4.29 -1.32 8.58 -2 13 C-1.34 13 -0.68 13 0 13 C2 16 2 16 2 19 C4.31 19 6.62 19 9 19 C5.06849542 23.20264282 2.32753484 24.17189602 -3.375 24.375 C-7.40218398 24.33244059 -8.6625343 24.23415988 -12.0625 21.875 C-14.53050393 18.21280062 -16.36601197 15.38123081 -15.66796875 10.83984375 C-15.18594599 8.87360704 -14.60004795 6.93348784 -14 5 C-13.34 5 -12.68 5 -12 5 C-12 4.34 -12 3.68 -12 3 C-11.34 3 -10.68 3 -10 3 C-10 2.34 -10 1.68 -10 1 C-6.46315341 0.19157792 -3.72159473 0 0 0 Z " fill="#2C2D2F" transform="translate(70,50)"/>
<path d="M0 0 C3.375 -0.125 3.375 -0.125 7 0 C7.66 0.66 8.32 1.32 9 2 C11.10820797 1.6814823 11.10820797 1.6814823 13 1 C13 1.66 13 2.32 13 3 C13.99 3 14.98 3 16 3 C16.0272415 4.41655793 16.04650467 5.83327045 16.0625 7.25 C16.07410156 8.03890625 16.08570312 8.8278125 16.09765625 9.640625 C15.94426493 13.34655932 15.66315194 15.33684806 13 18 C13 18.33 13 18.66 13 19 C3.0777605 19.61586314 3.0777605 19.61586314 -0.625 17.5 C-2.51394984 14.06554575 -3.21584992 10.8781036 -3 7 C-2.23978638 4.44510487 -1.24083252 2.38239845 0 0 Z " fill="#1F2121" transform="translate(6,62)"/>
<path d="M0 0 C0 1.65 0 3.3 0 5 C-9.56064737 11.88169991 -21.37490285 11.11546181 -32.578125 9.4765625 C-33.37734375 9.31929687 -34.1765625 9.16203125 -35 9 C-34.67 7.35 -34.34 5.7 -34 4 C-23.66805477 2.91852536 -23.66805477 2.91852536 -18.5625 3.125 C-13.65788053 3.2138518 -9.20572392 1.95330315 -4.50390625 0.65625 C-2 0 -2 0 0 0 Z " fill="#3D3D3E" transform="translate(171,123)"/>
<path d="M0 0 C1.94140625 0.37890625 1.94140625 0.37890625 4.44140625 1.94140625 C6.52533443 5.32778954 6.49942722 7.47275943 5.94140625 11.37890625 C4.00710225 14.10126003 2.63526944 15.12982716 -0.49609375 16.25390625 C-3.55552761 16.40314693 -5.36274273 15.80171651 -8.05859375 14.37890625 C-9.65798071 11.18013233 -9.41607401 7.85746412 -9.05859375 4.37890625 C-7.28540878 -0.05405619 -4.60144714 -0.26269772 0 0 Z " fill="#5C5D5E" transform="translate(141.05859375,9.62109375)"/>
<path d="M0 0 C0.33 1.65 0.66 3.3 1 5 C4.3 5 7.6 5 11 5 C10.34 6.32 9.68 7.64 9 9 C8.67 8.34 8.34 7.68 8 7 C3.92813691 6.61617929 3.92813691 6.61617929 0.30859375 8.1640625 C-1.50811374 10.71287599 -1.26502883 12.46951034 -1.125 15.5625 C-0.91512915 20.8302583 -0.91512915 20.8302583 -2 23 C-3.98 23 -5.96 23 -8 23 C-8 22.34 -8 21.68 -8 21 C-8.66 21 -9.32 21 -10 21 C-10 17.04 -10 13.08 -10 9 C-9.34 9 -8.68 9 -8 9 C-7.9071875 8.1646875 -7.9071875 8.1646875 -7.8125 7.3125 C-6.59675838 3.8523123 -3.91903476 0 0 0 Z " fill="#939495" transform="translate(16,14)"/>
<path d="M0 0 C1.55074219 -0.00773437 1.55074219 -0.00773437 3.1328125 -0.015625 C5.875 0.25 5.875 0.25 8.875 2.25 C7.225 2.91 5.575 3.57 3.875 4.25 C4.2359375 4.98605469 4.596875 5.72210938 4.96875 6.48046875 C5.4328125 7.45628906 5.896875 8.43210937 6.375 9.4375 C6.8390625 10.40042969 7.303125 11.36335938 7.78125 12.35546875 C8.87092921 15.23922693 9.09777524 17.20354861 8.875 20.25 C7.84374043 18.25025318 6.887789 16.2835553 6.0859375 14.1796875 C4.40519495 9.91158149 4.40519495 9.91158149 0.8359375 7.2890625 C-1.61162888 6.6507692 -1.61162888 6.6507692 -5.125 6.25 C-5.125 6.91 -5.125 7.57 -5.125 8.25 C-5.785 8.25 -6.445 8.25 -7.125 8.25 C-8.05053743 11.38850064 -8.24164647 14.18680778 -8.22265625 17.453125 C-8.21943359 18.4328125 -8.21621094 19.4125 -8.21289062 20.421875 C-8.20451172 21.43765625 -8.19613281 22.4534375 -8.1875 23.5 C-8.18298828 24.53125 -8.17847656 25.5625 -8.17382812 26.625 C-8.16206088 29.16672573 -8.14562011 31.70833319 -8.125 34.25 C-8.785 34.25 -9.445 34.25 -10.125 34.25 C-10.13901855 33.1830188 -10.13901855 33.1830188 -10.15332031 32.09448242 C-10.20696888 28.8747794 -10.29062635 25.65653817 -10.375 22.4375 C-10.38917969 21.31794922 -10.40335938 20.19839844 -10.41796875 19.04492188 C-10.45019531 17.97177734 -10.48242188 16.89863281 -10.515625 15.79296875 C-10.53657227 14.80321045 -10.55751953 13.81345215 -10.57910156 12.79370117 C-10.89983639 10.09297457 -10.89983639 10.09297457 -13.16308594 8.40356445 C-13.81051758 8.02288818 -14.45794922 7.64221191 -15.125 7.25 C-16.445 8.24 -17.765 9.23 -19.125 10.25 C-17.36182158 5.31310042 -13.35664464 3.31125428 -8.80859375 1.1484375 C-5.73817219 0.12049433 -3.23242139 -0.01620261 0 0 Z " fill="#787C7E" transform="translate(176.125,28.75)"/>
<path d="M0 0 C3.125 1.5 3.125 1.5 5 3 C3.68 3.33 2.36 3.66 1 4 C1 3.34 1 2.68 1 2 C0.01 2.495 0.01 2.495 -1 3 C-1 3.99 -1 4.98 -1 6 C-1.99 6 -2.98 6 -4 6 C-2.35 6.66 -0.7 7.32 1 8 C0.01 9.485 0.01 9.485 -1 11 C-1.886875 10.67 -2.77375 10.34 -3.6875 10 C-9.25272729 8.31993139 -11.48916855 8.79566742 -17 11 C-17.33 20.57 -17.66 30.14 -18 40 C-18.33 40 -18.66 40 -19 40 C-19.33 27.79 -19.66 15.58 -20 3 C-19.01 3.33 -18.02 3.66 -17 4 C-15.989375 3.360625 -14.97875 2.72125 -13.9375 2.0625 C-9.45099233 -0.68084227 -5.12769616 -0.75356346 0 0 Z " fill="#333435" transform="translate(236,29)"/>
<path d="M0 0 C6.15789474 0.34210526 6.15789474 0.34210526 9 2.5625 C10.58704465 6.43092133 9.98305619 8.93670108 9 13 C6.69754675 15.04662511 5.05933946 14.99381881 2 15.3125 C-1.41764043 14.95649579 -2.7067719 14.54803123 -5 12 C-6.0625 9.125 -6.0625 9.125 -6 6 C-3.625 3.1875 -3.625 3.1875 -1 1 C-0.67 0.67 -0.34 0.34 0 0 Z M0 6 C0 6.99 0 7.98 0 9 C0.99 9.33 1.98 9.66 3 10 C3.66 9.67 4.32 9.34 5 9 C5 8.01 5 7.02 5 6 C3.35 6 1.7 6 0 6 Z " fill="#46484D" transform="translate(141,79)"/>
<path d="M0 0 C3.63 0 7.26 0 11 0 C11.33 1.32 11.66 2.64 12 4 C11.34 4.66 10.68 5.32 10 6 C10.28552357 7.89667109 10.28552357 7.89667109 11 10 C11.33 11.65 11.66 13.3 12 15 C8.04 15 4.08 15 0 15 C-0.19448477 12.87562788 -0.38038289 10.75046809 -0.5625 8.625 C-0.66691406 7.44164063 -0.77132812 6.25828125 -0.87890625 5.0390625 C-1 2 -1 2 0 0 Z " fill="#6E6E6F" transform="translate(163,79)"/>
<path d="M0 0 C0 4.29 0 8.58 0 13 C-2.97 13 -5.94 13 -9 13 C-8.67 14.32 -8.34 15.64 -8 17 C-5.36 17 -2.72 17 0 17 C0.02692484 19.29160319 0.04636124 21.58329546 0.0625 23.875 C0.07410156 25.15117188 0.08570312 26.42734375 0.09765625 27.7421875 C0 31 0 31 -1 33 C-0.01 33 0.98 33 2 33 C2.33 34.32 2.66 35.64 3 37 C2.34 37 1.68 37 1 37 C1 36.34 1 35.68 1 35 C0.34 35 -0.32 35 -1 35 C-1 35.66 -1 36.32 -1 37 C-6.82457838 40.18965007 -11.45979596 41.73123048 -18 40 C-18 39.67 -18 39.34 -18 39 C-12.06 38.505 -12.06 38.505 -6 38 C-5.67 37.01 -5.34 36.02 -5 35 C-6.32 34.34 -7.64 33.68 -9 33 C-8.030625 32.690625 -7.06125 32.38125 -6.0625 32.0625 C-3.15934208 31.30476658 -3.15934208 31.30476658 -2 30 C-1.76572222 27.98405418 -1.58663876 25.961526 -1.4375 23.9375 C-1.35371094 22.83277344 -1.26992187 21.72804688 -1.18359375 20.58984375 C-1.09271484 19.30787109 -1.09271484 19.30787109 -1 18 C-3.97 18.66 -6.94 19.32 -10 20 C-10.66 22.64 -11.32 25.28 -12 28 C-12.33 28 -12.66 28 -13 28 C-13.08159574 23.83861737 -12.98248524 20.0527516 -12 16 C-13.98 16 -15.96 16 -18 16 C-17 14 -17 14 -14.5625 12.875 C-9.98193562 11.7499491 -5.69039798 11.8331479 -1 12 C-1.24126997 6.26133714 -1.24126997 6.26133714 -4.0625 1.5 C-4.701875 1.005 -5.34125 0.51 -6 0 C-2.25 -1.125 -2.25 -1.125 0 0 Z " fill="#B2B3B4" transform="translate(81,35)"/>
<path d="M0 0 C1.2065625 0.0309375 1.2065625 0.0309375 2.4375 0.0625 C2.4375 1.7125 2.4375 3.3625 2.4375 5.0625 C5.68599977 3.34023504 5.68599977 3.34023504 6.4375 0.0625 C8.0875 0.3925 9.7375 0.7225 11.4375 1.0625 C11.1075 5.3525 10.7775 9.6425 10.4375 14.0625 C9.1175 14.0625 7.7975 14.0625 6.4375 14.0625 C6.4375 12.4125 6.4375 10.7625 6.4375 9.0625 C5.1175 9.0625 3.7975 9.0625 2.4375 9.0625 C2.4375 10.7125 2.4375 12.3625 2.4375 14.0625 C0.7875 14.0625 -0.8625 14.0625 -2.5625 14.0625 C-3.55543628 11.08369115 -3.69656411 9.04648802 -3.6875 5.9375 C-3.69007812 5.04804687 -3.69265625 4.15859375 -3.6953125 3.2421875 C-3.50153102 0.06189137 -3.20942907 0.07827876 0 0 Z " fill="#7C7E7F" transform="translate(113.5625,79.9375)"/>
<path d="M0 0 C2.4375 0.5 2.4375 0.5 4.25 2.5 C4.641875 3.16 5.03375 3.82 5.4375 4.5 C5.1075 5.16 4.7775 5.82 4.4375 6.5 C4.623125 7.655 4.80875 8.81 5 10 C5.144375 11.155 5.28875 12.31 5.4375 13.5 C3.4375 15.5 3.4375 15.5 -0.0625 15.6875 C-3.5625 15.5 -3.5625 15.5 -5.5625 14.5 C-5.541875 13.5925 -5.52125 12.685 -5.5 11.75 C-5.38941043 8.63537204 -5.38941043 8.63537204 -6.3125 6.375 C-6.5625 4.5 -6.5625 4.5 -4.9375 2.25 C-2.5625 0.5 -2.5625 0.5 0 0 Z " fill="#141516" transform="translate(93.5625,78.5)"/>
<path d="M0 0 C2 1.125 2 1.125 4 3 C4.25 6.1875 4.25 6.1875 4 9 C3.505 7.515 3.505 7.515 3 6 C2.278125 6.309375 1.55625 6.61875 0.8125 6.9375 C-1.81730635 7.9309824 -4.24133465 8.50485494 -7 9 C-7.598125 9.185625 -8.19625 9.37125 -8.8125 9.5625 C-12.21151372 10.24230274 -15.5381043 10.05769826 -19 10 C-18.34 9.34 -17.68 8.68 -17 8 C-18.65 8 -20.3 8 -22 8 C-22 8.66 -22 9.32 -22 10 C-24.97 10 -27.94 10 -31 10 C-31.33 11.32 -31.66 12.64 -32 14 C-34.3431213 13.74438677 -36.67843403 13.40729228 -39 13 C-39.33 12.34 -39.66 11.68 -40 11 C-37.69 11 -35.38 11 -33 11 C-33.33 10.01 -33.66 9.02 -34 8 C-36.50447516 6.78130071 -36.50447516 6.78130071 -39 6 C-35.29218328 4.76406109 -34.32489747 5.4321868 -30.8125 6.9375 C-29.91144531 7.31777344 -29.01039063 7.69804688 -28.08203125 8.08984375 C-27.39496094 8.39019531 -26.70789063 8.69054687 -26 9 C-26 8.01 -26 7.02 -26 6 C-26.99 5.67 -27.98 5.34 -29 5 C-27.02 4.67 -25.04 4.34 -23 4 C-23 4.66 -23 5.32 -23 6 C-19.72815192 5.91915297 -16.45817221 5.80631126 -13.1875 5.6875 C-11.7943457 5.65366211 -11.7943457 5.65366211 -10.37304688 5.61914062 C-9.48037109 5.58369141 -8.58769531 5.54824219 -7.66796875 5.51171875 C-6.84578857 5.48553467 -6.0236084 5.45935059 -5.17651367 5.43237305 C-2.54359048 4.90933244 -1.60699554 4.11874033 0 2 C0 1.34 0 0.68 0 0 Z " fill="#828484" transform="translate(168,117)"/>
<path d="M0 0 C0.33 0 0.66 0 1 0 C1 4.29 1 8.58 1 13 C1.66 13 2.32 13 3 13 C1.64416535 16.08754425 0.17282591 18.04707629 -2.375 20.25 C-3.25285156 21.03117187 -3.25285156 21.03117187 -4.1484375 21.828125 C-6 23 -6 23 -10 23 C-10 23.66 -10 24.32 -10 25 C-7.69 25 -5.38 25 -3 25 C-6.70599341 27.37183578 -9.66627113 27.41939312 -14 27 C-17.42029692 25.85157914 -20.71187299 24.48197273 -24 23 C-23.67 22.34 -23.34 21.68 -23 21 C-20.4375 20.375 -20.4375 20.375 -18 20 C-17.67 19.01 -17.34 18.02 -17 17 C-16.113125 17.495 -15.22625 17.99 -14.3125 18.5 C-11.09056323 19.95899023 -9.450297 20.55950762 -6 20 C-3.01316654 18.11940115 -2.26418054 15.44881777 -1.40625 12.1171875 C-0.63781441 8.11245584 -0.31059287 4.06222774 0 0 Z " fill="#515252" transform="translate(185,49)"/>
<path d="M0 0 C2.64 0 5.28 0 8 0 C8 0.33 8 0.66 8 1 C5.69 1 3.38 1 1 1 C1.33 11.23 1.66 21.46 2 32 C2.66 32 3.32 32 4 32 C4 32.66 4 33.32 4 34 C5.98 34 7.96 34 10 34 C9.01 36.475 9.01 36.475 8 39 C2.76528314 39.75612577 -1.77254141 40.2063366 -7 39 C-7 37.68 -7 36.36 -7 35 C-5.515 34.505 -5.515 34.505 -4 34 C-2.37485532 32.54166642 -2.37485532 32.54166642 -1 31 C-0.67 30.67 -0.34 30.34 0 30 C0.08783542 27.78144736 0.10694609 25.56011504 0.09765625 23.33984375 C0.09553383 22.34314415 0.09553383 22.34314415 0.09336853 21.3263092 C0.08775518 19.19666101 0.07520054 17.06711661 0.0625 14.9375 C0.05748671 13.49674631 0.05292351 12.05599097 0.04882812 10.61523438 C0.03778145 7.07678898 0.02050792 3.53840461 0 0 Z " fill="#6B6B6C" transform="translate(118,36)"/>
<path d="M0 0 C-1.00193437 3.79303725 -1.81024227 6.71536341 -4 10 C-4.66 10 -5.32 10 -6 10 C-6.33 11.32 -6.66 12.64 -7 14 C-8.98 14.33 -10.96 14.66 -13 15 C-14.60725635 11.78548731 -14.05748185 8.56387464 -14 5 C-13.34 5 -12.68 5 -12 5 C-12 4.34 -12 3.68 -12 3 C-11.34 3 -10.68 3 -10 3 C-10 2.34 -10 1.68 -10 1 C-6.59437148 0.22157062 -3.49234244 -0.09978121 0 0 Z " fill="#0A0C0E" transform="translate(70,50)"/>
<path d="M0 0 C1.01037827 0.00222061 2.02075653 0.00444122 3.06175232 0.00672913 C4.77341331 0.00684242 4.77341331 0.00684242 6.51965332 0.00695801 C7.76129745 0.01211929 9.00294159 0.01728058 10.2822113 0.02259827 C12.17785072 0.02472069 12.17785072 0.02472069 14.11178589 0.02688599 C17.47705394 0.0315487 20.84225495 0.04053972 24.20750427 0.05158997 C27.63930175 0.06180606 31.07110614 0.06638403 34.50291443 0.07142639 C41.2405633 0.08248071 47.9781803 0.09923742 54.71580505 0.12025452 C54.75852606 1.78637357 54.75644337 3.45408337 54.71580505 5.12025452 C53.71580505 6.12025452 53.71580505 6.12025452 51.46957397 6.24050903 C50.4769606 6.23828842 49.48434723 6.23606781 48.46165466 6.23377991 C47.34056808 6.23370438 46.21948151 6.23362885 45.06442261 6.23355103 C43.23476707 6.2258091 43.23476707 6.2258091 41.3681488 6.21791077 C40.12658524 6.21649582 38.88502167 6.21508087 37.60583496 6.21362305 C34.29975015 6.20896042 30.99373359 6.19996948 27.68766785 6.18891907 C24.31619356 6.17870279 20.94471223 6.17412496 17.57322693 6.16908264 C10.95406731 6.15802847 4.33494012 6.14127188 -2.28419495 6.12025452 C-2.66638262 4.46410794 -2.99814596 2.79568427 -3.28419495 1.12025452 C-2.28419495 0.12025452 -2.28419495 0.12025452 0 0 Z M-0.28419495 1.12025452 C-0.28419495 2.44025452 -0.28419495 3.76025452 -0.28419495 5.12025452 C17.53580505 5.12025452 35.35580505 5.12025452 53.71580505 5.12025452 C53.71580505 3.80025452 53.71580505 2.48025452 53.71580505 1.12025452 C35.89580505 1.12025452 18.07580505 1.12025452 -0.28419495 1.12025452 Z " fill="#BCBCBD" transform="translate(38.28419494628906,113.87974548339844)"/>
<path d="M0 0 C18.81 0 37.62 0 57 0 C57 0.33 57 0.66 57 1 C29.775 1.495 29.775 1.495 2 2 C5.71661441 3.85830721 6.95130776 4.25712591 10.86035156 4.31884766 C12.30139252 4.34865219 12.30139252 4.34865219 13.77154541 4.37905884 C15.31548981 4.39638565 15.31548981 4.39638565 16.890625 4.4140625 C17.95037537 4.43342865 19.01012573 4.4527948 20.10198975 4.4727478 C23.48457813 4.53249554 26.86720063 4.5789102 30.25 4.625 C32.54428562 4.66318416 34.83855697 4.70223615 37.1328125 4.7421875 C42.75508162 4.83819315 48.37743677 4.92325483 54 5 C54 5.33 54 5.66 54 6 C46.48861406 6.0252899 38.97723903 6.04284141 31.46582031 6.05493164 C28.90884999 6.05997017 26.35188257 6.06680107 23.79492188 6.07543945 C20.12629483 6.08752602 16.45770577 6.09323301 12.7890625 6.09765625 C11.64007477 6.10281754 10.49108704 6.10797882 9.30728149 6.11329651 C8.2463327 6.11337204 7.18538391 6.11344757 6.09228516 6.11352539 C4.68663803 6.11685631 4.68663803 6.11685631 3.25259399 6.12025452 C1 6 1 6 -1 5 C-0.67 3.35 -0.34 1.7 0 0 Z " fill="#B5B5B5" transform="translate(173,106)"/>
<path d="M0 0 C6.27 0 12.54 0 19 0 C19.33 2.31 19.66 4.62 20 7 C17.60385874 7.05425226 15.20896147 7.09379027 12.8125 7.125 C11.80219727 7.15013672 11.80219727 7.15013672 10.77148438 7.17578125 C6.71192193 7.21538674 3.65001185 6.80020002 0 5 C0 3.35 0 1.7 0 0 Z " fill="#0F0F0F" transform="translate(99,122)"/>
<path d="M0 0 C0.53625 0.268125 1.0725 0.53625 1.625 0.8125 C1.625 1.4725 1.625 2.1325 1.625 2.8125 C3.935 2.8125 6.245 2.8125 8.625 2.8125 C6.625 4.8125 6.625 4.8125 4.125 5.125 C2.8875 5.4653125 2.8875 5.4653125 1.625 5.8125 C0.91252268 7.4601038 0.25099617 9.13013529 -0.375 10.8125 C-4.59121622 14.8125 -4.59121622 14.8125 -8.375 14.8125 C-9.2797009 6.18433404 -9.2797009 6.18433404 -7.1796875 3 C-4.84056803 0.93123102 -3.17247281 -0.25045838 0 0 Z " fill="#5E6163" transform="translate(66.375,31.1875)"/>
<path d="M0 0 C1.46067199 0.45082469 2.91848032 0.91093537 4.375 1.375 C5.18710938 1.63023438 5.99921875 1.88546875 6.8359375 2.1484375 C9 3 9 3 11 5 C9.9790625 4.7834375 9.9790625 4.7834375 8.9375 4.5625 C5.63726918 3.93054091 2.32855574 3.45686059 -1 3 C-3.18841354 6.28262031 -3.24854665 7.31790898 -3.1875 11.125 C-3.18105469 12.01445313 -3.17460938 12.90390625 -3.16796875 13.8203125 C-3.23953048 15.97736529 -3.23953048 15.97736529 -2 17 C0.53049402 17.07313567 3.03304837 17.09247527 5.5625 17.0625 C6.27341797 17.05798828 6.98433594 17.05347656 7.71679688 17.04882812 C9.47790013 17.03700864 11.23896036 17.01907263 13 17 C13.33 17.66 13.66 18.32 14 19 C16.34907875 19.68931344 16.34907875 19.68931344 19.0625 20.125 C19.98160156 20.29257813 20.90070313 20.46015625 21.84765625 20.6328125 C22.55792969 20.75398438 23.26820312 20.87515625 24 21 C20.76248322 22.07917226 18.42248229 22.11425601 15.01953125 22.09765625 C13.85615234 22.09443359 12.69277344 22.09121094 11.49414062 22.08789062 C10.27919922 22.07951172 9.06425781 22.07113281 7.8125 22.0625 C6.58595703 22.05798828 5.35941406 22.05347656 4.09570312 22.04882812 C1.06375332 22.03703065 -1.96809906 22.02056921 -5 22 C-4.67 21.34 -4.34 20.68 -4 20 C-4.33 19.154375 -4.66 18.30875 -5 17.4375 C-6.27992029 13.037774 -6.29633471 9.407538 -5 5 C-2.4375 1.9375 -2.4375 1.9375 0 0 Z " fill="#D5D5D5" transform="translate(104,100)"/>
<path d="M0 0 C0.33 0.99 0.66 1.98 1 3 C-0.51171875 5.41015625 -0.51171875 5.41015625 -2.6875 8.0625 C-3.74517578 9.37927734 -3.74517578 9.37927734 -4.82421875 10.72265625 C-7.66599604 13.69708383 -9.46705104 14.8838675 -13.578125 15.1953125 C-14.45984375 15.17210938 -15.3415625 15.14890625 -16.25 15.125 C-17.14203125 15.10695313 -18.0340625 15.08890625 -18.953125 15.0703125 C-19.96632812 15.03550781 -19.96632812 15.03550781 -21 15 C-21 14.34 -21 13.68 -21 13 C-20.319375 12.79375 -19.63875 12.5875 -18.9375 12.375 C-15.62452134 10.82424403 -13.3421985 8.87529276 -10.6484375 6.4375 C-9 5 -9 5 -6 3 C-5.34 2.34 -4.68 1.68 -4 1 C-1.875 0.375 -1.875 0.375 0 0 Z " fill="#393C40" transform="translate(196,59)"/>
<path d="M0 0 C1.32 0.33 2.64 0.66 4 1 C2.34211897 7.69891766 0.33788364 12.60695547 -4 18 C-4.99 17.67 -5.98 17.34 -7 17 C-6.319375 16.443125 -5.63875 15.88625 -4.9375 15.3125 C-3.9784375 14.1678125 -3.9784375 14.1678125 -3 13 C-3.495 10.525 -3.495 10.525 -4 8 C-18.19 7.67 -32.38 7.34 -47 7 C-47 6.67 -47 6.34 -47 6 C-45.07752441 5.99383667 -45.07752441 5.99383667 -43.11621094 5.98754883 C-38.35978002 5.96577257 -33.60417813 5.91149835 -28.84814453 5.84741211 C-26.78995714 5.82421898 -24.73165085 5.80983332 -22.67333984 5.80444336 C-19.71376332 5.79516345 -16.75606035 5.75419415 -13.796875 5.70703125 C-12.41698395 5.71293022 -12.41698395 5.71293022 -11.00921631 5.71894836 C-5.6154666 5.65485483 -5.6154666 5.65485483 -1.38769531 2.45581055 C-0.70078613 1.24018433 -0.70078613 1.24018433 0 0 Z " fill="#ABAEB0" transform="translate(71,4)"/>
<path d="M0 0 C0.33 0.99 0.66 1.98 1 3 C2.65 3 4.3 3 6 3 C7.46860022 7.40580067 7.18436701 11.69760513 7.1875 16.3125 C7.19974609 17.25029297 7.21199219 18.18808594 7.22460938 19.15429688 C7.23522625 24.17608029 6.99348665 28.29600185 5 33 C4.34 32.67 3.68 32.34 3 32 C3.33 31.34 3.66 30.68 4 30 C4.22467831 28.46331135 4.40796805 26.92031946 4.5625 25.375 C4.64628906 24.55773437 4.73007812 23.74046875 4.81640625 22.8984375 C4.87699219 22.27195312 4.93757813 21.64546875 5 21 C4.01 21 3.02 21 2 21 C2 20.34 2 19.68 2 19 C0.35 19.66 -1.3 20.32 -3 21 C-3.33 20.34 -3.66 19.68 -4 19 C-6.52733235 18.34444881 -6.52733235 18.34444881 -9 18 C-8.67 17.34 -8.34 16.68 -8 16 C-6.5629191 15.94577053 -5.12524538 15.90710277 -3.6875 15.875 C-2.88699219 15.85179687 -2.08648437 15.82859375 -1.26171875 15.8046875 C1 16 1 16 4 18 C4 13.71 4 9.42 4 5 C2.68 4.67 1.36 4.34 0 4 C0 2.68 0 1.36 0 0 Z " fill="#989999" transform="translate(17,44)"/>
<path d="M0 0 C0.66 0.33 1.32 0.66 2 1 C1.34 1.66 0.68 2.32 0 3 C-0.24377883 6.35744112 -0.24377883 6.35744112 -0.125 10.125 C-0.10695313 11.40632813 -0.08890625 12.68765625 -0.0703125 14.0078125 C-0.04710937 14.99523438 -0.02390625 15.98265625 0 17 C-1.65 17 -3.3 17 -5 17 C-6.30765478 13.07703567 -6.1971417 10.13997567 -6 6 C-5.34 5.34 -4.68 4.68 -4 4 C-3.67 3.01 -3.34 2.02 -3 1 C-2.01 0.67 -1.02 0.34 0 0 Z " fill="#212325" transform="translate(13,19)"/>
<path d="M0 0 C0 4.29 0 8.58 0 13 C-2.97 13 -5.94 13 -9 13 C-8.67 14.65 -8.34 16.3 -8 18 C-8.66 18 -9.32 18 -10 18 C-10.66 21.3 -11.32 24.6 -12 28 C-12.33 28 -12.66 28 -13 28 C-13.08159574 23.83861737 -12.98248524 20.0527516 -12 16 C-13.98 16 -15.96 16 -18 16 C-17 14 -17 14 -14.5625 12.875 C-9.98193562 11.7499491 -5.69039798 11.8331479 -1 12 C-1.24126997 6.26133714 -1.24126997 6.26133714 -4.0625 1.5 C-4.701875 1.005 -5.34125 0.51 -6 0 C-2.25 -1.125 -2.25 -1.125 0 0 Z " fill="#6E6F70" transform="translate(81,35)"/>
<path d="M0 0 C3.57763189 -0.32523926 5.39542581 -0.42956587 8.375 1.6875 C10.27258004 4.38790237 10.35882213 5.77060081 10 9 C7.69 9.33 5.38 9.66 3 10 C2.67 10.99 2.34 11.98 2 13 C0.39968656 9.79937313 1.96826309 7.27728194 3 4 C2.34 3.67 1.68 3.34 1 3 C0.34 3.66 -0.32 4.32 -1 5 C-0.67 3.35 -0.34 1.7 0 0 Z " fill="#0B0D0E" transform="translate(136,11)"/>
<path d="M0 0 C0.66 0.33 1.32 0.66 2 1 C2.19178072 5.79451797 2.00050465 9.59888976 0 14 C-1.9375 15.9375 -1.9375 15.9375 -4 17 C-4.99 16.67 -5.98 16.34 -7 16 C-5.7934375 15.1028125 -5.7934375 15.1028125 -4.5625 14.1875 C-1.77672016 12.19052724 -1.77672016 12.19052724 -1 9 C-6.28 8.67 -11.56 8.34 -17 8 C-17 7.67 -17 7.34 -17 7 C-16.26394531 6.98582031 -15.52789062 6.97164062 -14.76953125 6.95703125 C-8.20910488 6.8358471 -8.20910488 6.8358471 -2.875 3.5 C-2.25625 2.675 -1.6375 1.85 -1 1 C-0.67 0.67 -0.34 0.34 0 0 Z " fill="#8E9193" transform="translate(53,31)"/>
<path d="M0 0 C2 1.125 2 1.125 4 3 C4.25 6.1875 4.25 6.1875 4 9 C3.67 8.01 3.34 7.02 3 6 C1.9171875 6.4640625 1.9171875 6.4640625 0.8125 6.9375 C-1.81730635 7.9309824 -4.24133465 8.50485494 -7 9 C-7.8971875 9.2784375 -7.8971875 9.2784375 -8.8125 9.5625 C-12.21151372 10.24230274 -15.5381043 10.05769826 -19 10 C-15.88418716 6.88418716 -12.21716093 6.19872015 -7.9375 5.5 C-5.05092388 5.00866789 -2.67040735 4.17812089 0 3 C0 2.01 0 1.02 0 0 Z " fill="#EAEAEB" transform="translate(168,117)"/>
<path d="M0 0 C0 1.66666667 0 3.33333333 0 5 C0.66 5.66 1.32 6.32 2 7 C-1.96 7 -5.92 7 -10 7 C-10.33 5.35 -10.66 3.7 -11 2 C-7.17679443 0.57741188 -4.08718695 -0.24042276 0 0 Z " fill="#07090B" transform="translate(27,12)"/>
<path d="M0 0 C5.94 0 11.88 0 18 0 C18 0.66 18 1.32 18 2 C18.66 2.33 19.32 2.66 20 3 C17.43802188 3.22278071 14.87652444 3.42862563 12.3125 3.625 C11.2306543 3.72167969 11.2306543 3.72167969 10.12695312 3.8203125 C5.87409746 4.13102342 2.81256429 3.97020088 -1 2 C-0.67 1.34 -0.34 0.68 0 0 Z " fill="#050608" transform="translate(175,107)"/>
<path d="M0 0 C0.66 0.33 1.32 0.66 2 1 C0.625 3 0.625 3 -1 5 C-1.66 5 -2.32 5 -3 5 C-3 5.66 -3 6.32 -3 7 C-1.35 6.67 0.3 6.34 2 6 C1.67 6.66 1.34 7.32 1 8 C-0.32 8.33 -1.64 8.66 -3 9 C-3.33 18.57 -3.66 28.14 -4 38 C-4.33 38 -4.66 38 -5 38 C-5.33 25.79 -5.66 13.58 -6 1 C-5.01 1.33 -4.02 1.66 -3 2 C-2.01 1.34 -1.02 0.68 0 0 Z " fill="#A2A2A4" transform="translate(222,31)"/>
<path d="M0 0 C0.33 1.32 0.66 2.64 1 4 C-0.65 4 -2.3 4 -4 4 C-4 4.66 -4 5.32 -4 6 C-3.34 6 -2.68 6 -2 6 C-2 6.66 -2 7.32 -2 8 C-1.34 8 -0.68 8 0 8 C-0.33 8.99 -0.66 9.98 -1 11 C-1 10.34 -1 9.68 -1 9 C-3.31 8.67 -5.62 8.34 -8 8 C-8.75 6.25 -8.75 6.25 -9 4 C-6.34633802 0.3256988 -4.47218731 -0.4969097 0 0 Z " fill="#535355" transform="translate(96,79)"/>
<path d="M0 0 C2.33944736 0.28730055 4.6739143 0.61936779 7 1 C7 2.98 7 4.96 7 7 C5.02 7.33 3.04 7.66 1 8 C1 7.34 1 6.68 1 6 C0.34 6 -0.32 6 -1 6 C-1.042721 4.33388095 -1.04063832 2.66617115 -1 1 C-0.67 0.67 -0.34 0.34 0 0 Z " fill="#B7BCC2" transform="translate(246,29)"/>
<path d="M0 0 C0.33 0 0.66 0 1 0 C1 5.28 1 10.56 1 16 C2.32 16 3.64 16 5 16 C5.12375 17.093125 5.2475 18.18625 5.375 19.3125 C5.75464801 23.07381802 5.75464801 23.07381802 8 26 C4.10055126 24.74660576 2.67365036 22.32875127 0.81640625 18.7890625 C-1.73669287 13.19423285 -1.93997389 5.81992168 0 0 Z " fill="#828382" transform="translate(153,44)"/>
<path d="M0 0 C4.29 0 8.58 0 13 0 C11.02 0.99 11.02 0.99 9 2 C8.67 2.66 8.34 3.32 8 4 C9.15122327 6.5507496 10.51298124 8.9484485 11.87109375 11.39453125 C13.07204859 14.16628516 13.21969196 16.01540438 13 19 C11.89806392 16.85596148 10.88322493 14.71921501 9.95703125 12.4921875 C7.94819999 7.46101091 7.94819999 7.46101091 4.1171875 3.90625 C2.00306836 3.27199444 2.00306836 3.27199444 -1 3 C-0.67 2.01 -0.34 1.02 0 0 Z " fill="#5D5D5D" transform="translate(172,30)"/>
<path d="M0 0 C3.465 1.98 3.465 1.98 7 4 C6.67 5.32 6.34 6.64 6 8 C3.91695462 8.05418326 1.83350232 8.09287551 -0.25 8.125 C-1.99023438 8.15980469 -1.99023438 8.15980469 -3.765625 8.1953125 C-6.82786046 8.0103949 -8.44202751 7.60823023 -11 6 C-8.37684968 4.68842484 -6.76966564 5.10350012 -3.875 5.4375 C-2.96492188 5.53933594 -2.05484375 5.64117187 -1.1171875 5.74609375 C-0.41851562 5.82988281 0.28015625 5.91367188 1 6 C0.67 4.02 0.34 2.04 0 0 Z " fill="#808080" transform="translate(95,67)"/>
<path d="M0 0 C3.96 0 7.92 0 12 0 C12 1.32 12 2.64 12 4 C10.39620659 4.05416188 8.79188594 4.09286638 7.1875 4.125 C6.29417969 4.14820312 5.40085938 4.17140625 4.48046875 4.1953125 C2 4 2 4 -1 2 C-0.67 1.34 -0.34 0.68 0 0 Z " fill="#202120" transform="translate(219,107)"/>
<path d="M0 0 C0.66 0 1.32 0 2 0 C2.433125 0.804375 2.86625 1.60875 3.3125 2.4375 C4.76787059 5.24282331 4.76787059 5.24282331 7.6875 5.8125 C8.8321875 5.9053125 8.8321875 5.9053125 10 6 C9.67 7.32 9.34 8.64 9 10 C6.1875 10.25 6.1875 10.25 3 10 C1.125 8.375 1.125 8.375 0 6 C-0.1875 2.75 -0.1875 2.75 0 0 Z " fill="#464847" transform="translate(137,84)"/>
<path d="M0 0 C0.33 0 0.66 0 1 0 C1 4.29 1 8.58 1 13 C1.66 13 2.32 13 3 13 C1.43187242 17.23394447 -1.34601998 19.47032152 -5 22 C-8.375 22.3125 -8.375 22.3125 -11 22 C-11 21.67 -11 21.34 -11 21 C-10.071875 20.773125 -9.14375 20.54625 -8.1875 20.3125 C-4.31926682 18.7196981 -3.77719788 17.71595921 -2 14 C-1.21514103 10.43038906 -1.21514103 10.43038906 -0.8125 6.6875 C-0.57466797 4.80611328 -0.57466797 4.80611328 -0.33203125 2.88671875 C-0.16767578 1.45779297 -0.16767578 1.45779297 0 0 Z " fill="#7B7C7B" transform="translate(185,49)"/>
<path d="M0 0 C0.61875 0.639375 1.2375 1.27875 1.875 1.9375 C3.82597612 4.03883584 3.82597612 4.03883584 6 5 C6 6.32 6 7.64 6 9 C1.71 9 -2.58 9 -7 9 C-5.68 8.01 -4.36 7.02 -3 6 C-1.24927285 2.91666413 -1.24927285 2.91666413 0 0 Z " fill="#747574" transform="translate(246,66)"/>
<path d="M0 0 C0.99 0 1.98 0 3 0 C3.0825 0.61875 3.165 1.2375 3.25 1.875 C3.81258459 4.18437567 3.81258459 4.18437567 6.0625 5.25 C6.701875 5.4975 7.34125 5.745 8 6 C6.35 6.33 4.7 6.66 3 7 C3 8.65 3 10.3 3 12 C2.01 12 1.02 12 0 12 C0 8.04 0 4.08 0 0 Z " fill="#090A0D" transform="translate(112,81)"/>
<path d="M0 0 C0.1875 2.375 0.1875 2.375 0 5 C-3.22791555 7.1519437 -4.28400809 7.20086443 -8 7 C-8 5.68 -8 4.36 -8 3 C-8.66 2.67 -9.32 2.34 -10 2 C-8.7090864 1.66376204 -7.41723903 1.33110751 -6.125 1 C-5.40570313 0.814375 -4.68640625 0.62875 -3.9453125 0.4375 C-2 0 -2 0 0 0 Z " fill="#3C3D3D" transform="translate(171,123)"/>
<path d="M0 0 C0 3.71219303 -1.24525745 5.77127371 -3 9 C-4 10 -4 10 -5.84765625 10.09765625 C-7.8984375 10.06510417 -9.94921875 10.03255208 -12 10 C-12 9.34 -12 8.68 -12 8 C-11.319375 7.79375 -10.63875 7.5875 -9.9375 7.375 C-6.02990149 5.54591134 -3.16142061 2.89720966 0 0 Z " fill="#0E100F" transform="translate(187,64)"/>
<path d="M0 0 C2.31 0 4.62 0 7 0 C7.66 2.97 8.32 5.94 9 9 C8.01 9.495 8.01 9.495 7 10 C7 8.35 7 6.7 7 5 C5.02 5 3.04 5 1 5 C0.67 3.35 0.34 1.7 0 0 Z " fill="#131314" transform="translate(99,31)"/>
<path d="M0 0 C0.99 0 1.98 0 3 0 C3 0.66 3 1.32 3 2 C4.32 2 5.64 2 7 2 C5.52307692 6.67692308 5.52307692 6.67692308 2.875 8.3125 C1.946875 8.6528125 1.946875 8.6528125 1 9 C0.67 8.34 0.34 7.68 0 7 C0.33 6.67 0.66 6.34 1 6 C-0.32 5.34 -1.64 4.68 -3 4 C-1.68 3.34 -0.36 2.68 1 2 C0.67 1.34 0.34 0.68 0 0 Z " fill="#0C0D10" transform="translate(234,31)"/>
<path d="M0 0 C1.09570312 0.00902344 2.19140625 0.01804687 3.3203125 0.02734375 C4.16335937 0.03894531 5.00640625 0.05054687 5.875 0.0625 C5.875 0.3925 5.875 0.7225 5.875 1.0625 C2.575 1.0625 -0.725 1.0625 -4.125 1.0625 C-4.125 1.7225 -4.125 2.3825 -4.125 3.0625 C-3.155625 3.35125 -2.18625 3.64 -1.1875 3.9375 C1.875 5.0625 1.875 5.0625 2.875 7.0625 C-0.425 7.0625 -3.725 7.0625 -7.125 7.0625 C-6.795 5.4125 -6.465 3.7625 -6.125 2.0625 C-6.785 1.7325 -7.445 1.4025 -8.125 1.0625 C-5.36047967 -0.31976016 -3.0788637 -0.03275387 0 0 Z " fill="#9A9B9C" transform="translate(176.125,28.9375)"/>
<path d="M0 0 C2.02045442 0.60183749 4.02111039 1.27306096 6 2 C6.33 2.66 6.66 3.32 7 4 C5.68 4 4.36 4 3 4 C2.67 4.99 2.34 5.98 2 7 C1.67 5.68 1.34 4.36 1 3 C0.34 3 -0.32 3 -1 3 C0.21044132 7.60742865 0.21044132 7.60742865 2 12 C0.0625 11.375 0.0625 11.375 -2 10 C-2.9375 7.125 -2.9375 7.125 -3 4 C-1.5625 1.625 -1.5625 1.625 0 0 Z " fill="#A6A6AA" transform="translate(138,81)"/>
<path d="M0 0 C2.10448938 0.14109986 4.2085877 0.28804175 6.3125 0.4375 C7.48425781 0.51871094 8.65601563 0.59992188 9.86328125 0.68359375 C13 1 13 1 16 2 C16.6875 4.0625 16.6875 4.0625 17 6 C15.35 6.66 13.7 7.32 12 8 C12.33 6.68 12.66 5.36 13 4 C8.71 3.01 4.42 2.02 0 1 C0 0.67 0 0.34 0 0 Z " fill="#696B6B" transform="translate(152,114)"/>
<path d="M0 0 C2.64 0 5.28 0 8 0 C8 1.32 8 2.64 8 4 C5.03 4 2.06 4 -1 4 C-0.67 2.68 -0.34 1.36 0 0 Z " fill="#302F30" transform="translate(33,107)"/>
<path d="M0 0 C0.66 0.66 1.32 1.32 2 2 C1.67 2.66 1.34 3.32 1 4 C1.185625 5.155 1.37125 6.31 1.5625 7.5 C1.706875 8.655 1.85125 9.81 2 11 C0 13 0 13 -3.625 13.125 C-4.73875 13.08375 -5.8525 13.0425 -7 13 C-7 12.67 -7 12.34 -7 12 C-5.02 11.67 -3.04 11.34 -1 11 C-0.67 9.02 -0.34 7.04 0 5 C-1.65 4.67 -3.3 4.34 -5 4 C-5 3.34 -5 2.68 -5 2 C-3.35 2 -1.7 2 0 2 C0 1.34 0 0.68 0 0 Z " fill="#CACACB" transform="translate(97,81)"/>
<path d="M0 0 C0 4.29 0 8.58 0 13 C-3.63 13 -7.26 13 -11 13 C-11 12.67 -11 12.34 -11 12 C-7.7 12 -4.4 12 -1 12 C-1.24126997 6.26133714 -1.24126997 6.26133714 -4.0625 1.5 C-4.701875 1.005 -5.34125 0.51 -6 0 C-2.25 -1.125 -2.25 -1.125 0 0 Z " fill="#D4D4D5" transform="translate(81,35)"/>
<path d="M0 0 C2.50357861 0.8345262 4.66785852 1.79371992 7 3 C6.3125 4.9375 6.3125 4.9375 5 7 C2.375 7.75 2.375 7.75 0 8 C0 5.36 0 2.72 0 0 Z " fill="#373A3D" transform="translate(59,37)"/>
<path d="M0 0 C0.99 0.66 1.98 1.32 3 2 C3.39507893 6.34586828 3.45331002 8.32003497 1 12 C-2.625 12.1875 -2.625 12.1875 -6 12 C-5.67 11.01 -5.34 10.02 -5 9 C-1.9375 7.8125 -1.9375 7.8125 1 7 C0.67 4.69 0.34 2.38 0 0 Z " fill="#696B6C" transform="translate(144,12)"/>
<path d="M0 0 C0.33 0.66 0.66 1.32 1 2 C4.96 2 8.92 2 13 2 C13 2.33 13 2.66 13 3 C7.555 3.495 7.555 3.495 2 4 C2 4.66 2 5.32 2 6 C0.02 6 -1.96 6 -4 6 C-3.34 5.67 -2.68 5.34 -2 5 C-2 4.01 -2 3.02 -2 2 C-2.99 1.67 -3.98 1.34 -5 1 C-3.35 0.67 -1.7 0.34 0 0 Z " fill="#A7A8A8" transform="translate(144,121)"/>
<path d="M0 0 C2.625 0.375 2.625 0.375 5 1 C4.67 3.31 4.34 5.62 4 8 C2.125 7.8125 2.125 7.8125 0 7 C-1.25 4.4375 -1.25 4.4375 -2 2 C-1.34 1.34 -0.68 0.68 0 0 Z " fill="#0A0B0B" transform="translate(181,31)"/>
<path d="M0 0 C0.928125 0.20625 1.85625 0.4125 2.8125 0.625 C2.1525 2.275 1.4925 3.925 0.8125 5.625 C-1.4975 5.295 -3.8075 4.965 -6.1875 4.625 C-6.1875 3.635 -6.1875 2.645 -6.1875 1.625 C-3.1875 -0.375 -3.1875 -0.375 0 0 Z " fill="#050608" transform="translate(163.1875,116.375)"/>
<path d="M0 0 C0.33 0 0.66 0 1 0 C0.67 2.64 0.34 5.28 0 8 C-1.32 8.33 -2.64 8.66 -4 9 C-4.33 8.01 -4.66 7.02 -5 6 C-7.01508358 5.26676204 -7.01508358 5.26676204 -9 5 C-6 4 -6 4 -4 4 C-3.67 3.01 -3.34 2.02 -3 1 C-2.67 1.99 -2.34 2.98 -2 4 C-1.34 4 -0.68 4 0 4 C0 2.68 0 1.36 0 0 Z " fill="#8B8D92" transform="translate(150,84)"/>
<path d="M0 0 C0.33 0.99 0.66 1.98 1 3 C-0.43359375 5.04296875 -0.43359375 5.04296875 -2.4375 7.1875 C-3.09621094 7.90292969 -3.75492188 8.61835937 -4.43359375 9.35546875 C-4.95050781 9.89816406 -5.46742188 10.44085938 -6 11 C-7 8 -7 8 -6.328125 6.2109375 C-5.79445312 5.30214844 -5.79445312 5.30214844 -5.25 4.375 C-4.73179687 3.45847656 -4.73179687 3.45847656 -4.203125 2.5234375 C-3 1 -3 1 0 0 Z " fill="#61646A" transform="translate(196,59)"/>
<path d="M0 0 C2 1.125 2 1.125 4 3 C4.25 6.1875 4.25 6.1875 4 9 C3.67 8.01 3.34 7.02 3 6 C1.8553125 6.495 1.8553125 6.495 0.6875 7 C-2 8 -2 8 -5 8 C-5 7.34 -5 6.68 -5 6 C-3.33333333 4.66666667 -1.66666667 3.33333333 0 2 C0 1.34 0 0.68 0 0 Z " fill="#E4E5E5" transform="translate(168,117)"/>
<path d="M0 0 C2.31 0 4.62 0 7 0 C6.814375 0.78375 6.62875 1.5675 6.4375 2.375 C5.74037734 4.97089775 5.74037734 4.97089775 7 7 C4.69 7 2.38 7 0 7 C0.2784375 6.1028125 0.2784375 6.1028125 0.5625 5.1875 C1.22093687 2.83591238 1.22093687 2.83591238 0 0 Z " fill="#BDBEBE" transform="translate(167,83)"/>
<path d="M0 0 C0.99 1.32 1.98 2.64 3 4 C-4.92 4 -12.84 4 -21 4 C-21 3.67 -21 3.34 -21 3 C-19.73542969 2.95101562 -18.47085938 2.90203125 -17.16796875 2.8515625 C-15.50779053 2.7765262 -13.84763536 2.70097873 -12.1875 2.625 C-11.35412109 2.5940625 -10.52074219 2.563125 -9.66210938 2.53125 C-8.85966797 2.49257812 -8.05722656 2.45390625 -7.23046875 2.4140625 C-6.12288208 2.36693115 -6.12288208 2.36693115 -4.99291992 2.31884766 C-2.68650412 2.09165386 -2.68650412 2.09165386 0 0 Z " fill="#0E0F11" transform="translate(218,107)"/>
<path d="M0 0 C1.05445312 0.00515625 2.10890625 0.0103125 3.1953125 0.015625 C4.76925781 0.00789063 4.76925781 0.00789063 6.375 0 C9.23630361 0.2580486 10.89308159 0.7881801 13.3203125 2.265625 C6.99401681 3.16938153 1.64660819 3.16938153 -4.6796875 2.265625 C-2.6796875 0.265625 -2.6796875 0.265625 0 0 Z " fill="#939494" transform="translate(71.6796875,28.734375)"/>
<path d="M0 0 C5.94 0.33 11.88 0.66 18 1 C17.67 1.66 17.34 2.32 17 3 C12.05 3 7.1 3 2 3 C2.99 4.485 2.99 4.485 4 6 C2.68 5.34 1.36 4.68 0 4 C0 2.68 0 1.36 0 0 Z " fill="#B8B8B7" transform="translate(198,29)"/>
<path d="M0 0 C2.4375 0.6875 2.4375 0.6875 5 2 C5.8125 4.625 5.8125 4.625 6 7 C5.01 7.33 4.02 7.66 3 8 C0.9375 5.6875 0.9375 5.6875 -1 3 C-0.67 2.01 -0.34 1.02 0 0 Z " fill="#0E0F0F" transform="translate(25,37)"/>
<path d="M0 0 C0.33 0.66 0.66 1.32 1 2 C2.32 2 3.64 2 5 2 C5 3.32 5 4.64 5 6 C2.69 5.67 0.38 5.34 -2 5 C-2 4.01 -2 3.02 -2 2 C-1.34 2 -0.68 2 0 2 C0 1.34 0 0.68 0 0 Z " fill="#060507" transform="translate(139,116)"/>
<path d="M0 0 C5.61 0 11.22 0 17 0 C17 0.33 17 0.66 17 1 C12.05 1.33 7.1 1.66 2 2 C2 2.99 2 3.98 2 5 C1.01 5 0.02 5 -1 5 C-0.67 3.35 -0.34 1.7 0 0 Z " fill="#999A9A" transform="translate(36,114)"/>
<path d="M0 0 C0.33 0.66 0.66 1.32 1 2 C3.01669827 3.13350534 3.01669827 3.13350534 5 4 C5 4.99 5 5.98 5 7 C2.69 6.67 0.38 6.34 -2 6 C-1.34 4.02 -0.68 2.04 0 0 Z " fill="#2B2D2D" transform="translate(216,67)"/>
<path d="M0 0 C0.66 0.33 1.32 0.66 2 1 C1.67 2.65 1.34 4.3 1 6 C-1.31 6.33 -3.62 6.66 -6 7 C-5 4 -5 4 -3 2.9375 C-2.34 2.628125 -1.68 2.31875 -1 2 C-0.67 1.34 -0.34 0.68 0 0 Z " fill="#070A0F" transform="translate(47,41)"/>
<path d="M0 0 C0.66 0.33 1.32 0.66 2 1 C1.34 1.66 0.68 2.32 0 3 C-0.64767793 5.57061311 -0.64767793 5.57061311 -1 8 C-2.32 8.33 -3.64 8.66 -5 9 C-4.7452486 7.68428397 -4.47065859 6.37239624 -4.1875 5.0625 C-4.03667969 4.33160156 -3.88585937 3.60070312 -3.73046875 2.84765625 C-3.48941406 2.23792969 -3.24835937 1.62820312 -3 1 C-2.01 0.67 -1.02 0.34 0 0 Z " fill="#05080D" transform="translate(13,19)"/>
<path d="M0 0 C1.32 0.33 2.64 0.66 4 1 C3.1875 2.9375 3.1875 2.9375 2 5 C0 5.66666667 -2 6.33333333 -4 7 C-4 6.01 -4 5.02 -4 4 C-3.34 4 -2.68 4 -2 4 C-2 3.34 -2 2.68 -2 2 C-1.34 2 -0.68 2 0 2 C0 1.34 0 0.68 0 0 Z " fill="#666868" transform="translate(60,51)"/>
<path d="M0 0 C3.3 0 6.6 0 10 0 C10 0.66 10 1.32 10 2 C8.0085944 2.38133299 6.00720923 2.71325582 4 3 C3.67 2.67 3.34 2.34 3 2 C2.34 2.66 1.68 3.32 1 4 C0.67 2.68 0.34 1.36 0 0 Z " fill="#060709" transform="translate(72,48)"/>
<path d="M0 0 C4.43090471 1.20842856 6.98112756 2.51668565 10 6 C9.67 6.66 9.34 7.32 9 8 C8.608125 7.505 8.21625 7.01 7.8125 6.5 C5.44908285 4.54406857 3.98564997 4.75792027 1 5 C0.67 3.35 0.34 1.7 0 0 Z " fill="#888988" transform="translate(185,31)"/>
<path d="M0 0 C0.66 0.33 1.32 0.66 2 1 C1.67 1.99 1.34 2.98 1 4 C1.66 4.66 2.32 5.32 3 6 C0.36 6.33 -2.28 6.66 -5 7 C-5 5 -5 5 -2.5 2.375 C-1.675 1.59125 -0.85 0.8075 0 0 Z " fill="#1A1C1F" transform="translate(224,31)"/>
<path d="M0 0 C2.97 0 5.94 0 9 0 C9 0.99 9 1.98 9 3 C6.36 3 3.72 3 1 3 C0.67 2.01 0.34 1.02 0 0 Z " fill="#060708" transform="translate(67,31)"/>
<path d="M0 0 C1.66611905 -0.042721 3.33382885 -0.04063832 5 0 C6 1 6 1 6.0625 3.5625 C6.041875 4.366875 6.02125 5.17125 6 6 C5.67 5.01 5.34 4.02 5 3 C4.67 3.66 4.34 4.32 4 5 C2.68 5 1.36 5 0 5 C0 3.35 0 1.7 0 0 Z " fill="#5E6673" transform="translate(246,29)"/>
<path d="M0 0 C-0.33 1.98 -0.66 3.96 -1 6 C-1.99 6 -2.98 6 -4 6 C-4.33 5.01 -4.66 4.02 -5 3 C-5.66 2.34 -6.32 1.68 -7 1 C-4.53721199 -0.231394 -2.7204945 -0.07159196 0 0 Z " fill="#101115" transform="translate(70,50)"/>
<path d="M0 0 C3.3 0 6.6 0 10 0 C10 0.66 10 1.32 10 2 C7.69 2 5.38 2 3 2 C2.67 2.66 2.34 3.32 2 4 C2 3.34 2 2.68 2 2 C1.34 2 0.68 2 0 2 C0 1.34 0 0.68 0 0 Z " fill="#080A0E" transform="translate(164,81)"/>
<path d="M0 0 C0.66 0 1.32 0 2 0 C2.99 1.98 3.98 3.96 5 6 C4.34 6 3.68 6 3 6 C2.67 6.66 2.34 7.32 2 8 C0 6 0 6 -0.125 2.875 C-0.08375 1.92625 -0.0425 0.9775 0 0 Z " fill="#0A0C12" transform="translate(137,84)"/>
<path d="M0 0 C2.64 0.33 5.28 0.66 8 1 C6 3 6 3 3.4375 3.5 C2.633125 3.665 1.82875 3.83 1 4 C0.67 4.66 0.34 5.32 0 6 C-1.125 2.25 -1.125 2.25 0 0 Z " fill="#737476" transform="translate(67,33)"/>
<path d="M0 0 C0 1.32 0 2.64 0 4 C-1.65 4 -3.3 4 -5 4 C-5.33 3.01 -5.66 2.02 -6 1 C-4 0 -4 0 0 0 Z " fill="#09090A" transform="translate(126,31)"/>
<path d="M0 0 C1.65 0 3.3 0 5 0 C4.67 1.32 4.34 2.64 4 4 C2.35 4 0.7 4 -1 4 C-0.67 2.68 -0.34 1.36 0 0 Z " fill="#656667" transform="translate(123,70)"/>
<path d="M0 0 C1.32 0.33 2.64 0.66 4 1 C3.34 3.31 2.68 5.62 2 8 C0.875 4.25 0.875 4.25 2 2 C0.02 2.99 0.02 2.99 -2 4 C-1.34 2.68 -0.68 1.36 0 0 Z " fill="#E5E6E6" transform="translate(71,4)"/>
<path d="M0 0 C2.625 0.9375 2.625 0.9375 5 2 C5 2.66 5 3.32 5 4 C2.69 3.67 0.38 3.34 -2 3 C-2 2.34 -2 1.68 -2 1 C-1.34 0.67 -0.68 0.34 0 0 Z " fill="#0C0E0E" transform="translate(146,70)"/>
<path d="M0 0 C0 0.66 0 1.32 0 2 C-1.65 2 -3.3 2 -5 2 C-4.67 2.99 -4.34 3.98 -4 5 C-4.66 5 -5.32 5 -6 5 C-6 3.35 -6 1.7 -6 0 C-3.50907189 -1.24546405 -2.58919267 -0.7767578 0 0 Z " fill="#B3B4B3" transform="translate(94,88)"/>
<path d="M0 0 C1.65 0.33 3.3 0.66 5 1 C5 1.66 5 2.32 5 3 C3.35 3 1.7 3 0 3 C-0.33 3.66 -0.66 4.32 -1 5 C-0.67 3.35 -0.34 1.7 0 0 Z " fill="#121215" transform="translate(92,80)"/>
<path d="M0 0 C0.66 0.33 1.32 0.66 2 1 C2 2.98 2 4.96 2 7 C0.02 5.35 -1.96 3.7 -4 2 C-2.125 0.9375 -2.125 0.9375 0 0 Z " fill="#777877" transform="translate(79,34)"/>
<path d="M0 0 C2.64 0 5.28 0 8 0 C7.34 1.32 6.68 2.64 6 4 C5.67 3.34 5.34 2.68 5 2 C2.47266765 1.34444881 2.47266765 1.34444881 0 1 C0 0.67 0 0.34 0 0 Z " fill="#CFD0D0" transform="translate(19,19)"/>
<path d="M0 0 C0.99 0 1.98 0 3 0 C3 0.99 3 1.98 3 3 C4.32 3.33 5.64 3.66 7 4 C4.36 4 1.72 4 -1 4 C-0.67 2.68 -0.34 1.36 0 0 Z " fill="#28282B" transform="translate(57,19)"/>
<path d="" fill="#FEFEFE" transform="translate(0,0)"/>
</svg>
